# xmcd CD database file
#
# Track frame offsets:
#	150
#	12818
#	23984
#	43457
#	54231
#	68268
#	76150
#	88581
#	102931
#	114273
#	124760
#	138347
#
# Disc length: 2019 seconds
#
# Revision: 0
# Processed by: cddbd v1.5.2PL0 Copyright (c) Steve Scherf et al.
# Submitted via: CDex 1.70beta2
#
DISCID=8d07e10c
DTITLE=CG-v3 - Country Greats - D3
DYEAR=1900
DGENRE=Country
TTITLE0=Making Believe - Kitty Wells
TTITLE1=San Antonio Rose - Ferlin Husky
TTITLE2=Livin' Him Was Easier - Tina Turner
TTITLE3=The Wild Side of Life - Freddy Fender
TTITLE4=Sunshine - Kenny Rogers
TTITLE5=Till The End of The World - Jim Reeves
TTITLE6=High Noon - Frankie Lane
TTITLE7=Highway To Nowhere - Jim Reevews
TTITLE8=Poor Little Fool - Rick Nelson
TTITLE9=Honkey Tonk Merry Go Round - Patsy Cline
TTITLE10=Freedom To Stay - Tina Turner
TTITLE11=Ruby Don't Take Your Love To Town - Kenny Rogers
EXTD=
EXTT0=
EXTT1=
EXTT2=
EXTT3=
EXTT4=
EXTT5=
EXTT6=
EXTT7=
EXTT8=
EXTT9=
EXTT10=
EXTT11=
PLAYORDER=
